<svg width="58" height="33" viewBox="0 0 58 33" fill="none" xmlns="http://www.w3.org/2000/svg">
<path d="M10.64 32.96C8.61333 32.96 6.81333 32.44 5.24 31.4C3.66667 30.36 2.42667 28.92 1.52 27.08C0.64 25.2133 0.2 23.08 0.2 20.68C0.2 18.8933 0.56 17.16 1.28 15.48C2 13.7733 2.8 12.28 3.68 11C3.57333 10.6 3.52 10.1067 3.52 9.52C3.52 8.8 3.81333 7.97333 4.4 7.04C4.98667 6.10667 5.8 5.2 6.84 4.32C7.90667 3.44 9.14667 2.70667 10.56 2.12C12 1.53333 13.56 1.24 15.24 1.24C17.8533 1.24 20.0533 1.77333 21.84 2.84C23.6267 3.90667 24.9733 5.30667 25.88 7.04C26.8133 8.77333 27.28 10.6533 27.28 12.68C27.28 15.6133 26.8 18.32 25.84 20.8C24.88 23.28 23.6 25.4267 22 27.24C20.4 29.0533 18.6133 30.4667 16.64 31.48C14.6667 32.4667 12.6667 32.96 10.64 32.96ZM11.12 7.88C11.1467 7.96 11.16 8.04 11.16 8.12C11.16 8.38667 11.1067 8.68 11 9C10.8933 9.29333 10.68 9.58667 10.36 9.88C9.82667 10.4133 9.29333 11.16 8.76 12.12C8.22667 13.0533 7.73333 14.0933 7.28 15.24C6.85333 16.3867 6.50667 17.56 6.24 18.76C5.97333 19.96 5.84 21.1067 5.84 22.2C5.84 23.6933 6.18667 24.9333 6.88 25.92C7.6 26.9067 8.72 27.4 10.24 27.4C11.52 27.4 12.7333 27.1067 13.88 26.52C15.0267 25.9067 16.08 25.0933 17.04 24.08C18 23.04 18.8267 21.8933 19.52 20.64C20.2133 19.36 20.7467 18.0667 21.12 16.76C21.52 15.4267 21.72 14.16 21.72 12.96C21.72 11.84 21.48 10.8 21 9.84C20.5467 8.88 19.88 8.10667 19 7.52C18.12 6.90666 17.0267 6.6 15.72 6.6C14.76 6.6 13.8933 6.72 13.12 6.96C12.3733 7.2 11.7067 7.50666 11.12 7.88ZM27.7503 7.64C26.4703 7.64 25.5236 7.52 24.9103 7.28C24.3236 7.01333 23.937 6.70667 23.7503 6.36C23.5903 5.98667 23.5103 5.65333 23.5103 5.36C23.5103 4.98667 23.7236 4.56 24.1503 4.08C24.577 3.57333 25.4036 3.2 26.6303 2.96C27.857 2.69333 29.3103 2.45333 30.9903 2.24C32.6703 2 34.457 1.8 36.3503 1.64C38.2436 1.45333 40.1636 1.29333 42.1103 1.16C44.057 1.02667 45.9103 0.933332 47.6703 0.879998C49.4303 0.799999 50.9903 0.759999 52.3503 0.759999C53.7636 0.759999 54.857 0.839999 55.6303 0.999999C56.4036 1.16 56.9503 1.36 57.2703 1.6C57.617 1.84 57.817 2.09333 57.8703 2.36C57.9503 2.62667 57.9903 2.88 57.9903 3.12C57.9903 3.17333 57.9903 3.21333 57.9903 3.24C57.9903 3.56 57.9103 3.90667 57.7503 4.28C57.617 4.65333 57.3103 4.97333 56.8303 5.24C56.3503 5.48 55.6303 5.6 54.6703 5.6C54.3236 5.6 53.5503 5.65333 52.3503 5.76C51.1503 5.86667 49.6836 6 47.9503 6.16C46.217 6.32 44.377 6.48 42.4303 6.64C42.137 7.84 41.8036 9.24 41.4303 10.84C41.0836 12.44 40.7236 14.12 40.3503 15.88C40.0036 17.64 39.6703 19.3733 39.3503 21.08C39.0303 22.76 38.7636 24.32 38.5503 25.76C38.337 27.1733 38.1903 28.3333 38.1103 29.24C38.0036 30.4667 37.6436 31.3333 37.0303 31.84C36.4436 32.32 35.857 32.56 35.2703 32.56C34.8436 32.56 34.417 32.4667 33.9903 32.28C33.5636 32.12 33.217 31.76 32.9503 31.2C32.6836 30.6133 32.5503 29.7467 32.5503 28.6C32.5503 27.4267 32.657 25.9867 32.8703 24.28C33.0836 22.5467 33.3636 20.6933 33.7103 18.72C34.0836 16.7467 34.497 14.76 34.9503 12.76C35.4303 10.76 35.9236 8.89333 36.4303 7.16C34.6436 7.29333 32.9903 7.41333 31.4703 7.52C29.9503 7.6 28.7103 7.64 27.7503 7.64Z" fill="url(#paint0_linear_1_2)"/>
<defs>
<linearGradient id="paint0_linear_1_2" x1="-4" y1="18" x2="60" y2="18" gradientUnits="userSpaceOnUse">
<stop stop-color="#737FFD"/>
<stop offset="1" stop-color="#00CBB7"/>
</linearGradient>
</defs>
</svg>
