<svg width="222" height="36" viewBox="0 0 222 36" fill="none" xmlns="http://www.w3.org/2000/svg">
<path d="M10.24 33.72C8.32 33.72 6.62667 33.1867 5.16 32.12C3.72 31.0533 2.58667 29.5867 1.76 27.72C0.96 25.8533 0.56 23.72 0.56 21.32C0.56 20.0667 0.746667 18.84 1.12 17.64C1.52 16.4133 2.01333 15.2667 2.6 14.2C3.18667 13.1067 3.78667 12.1333 4.4 11.28C4.18667 10.96 4.08 10.4667 4.08 9.8C4.08 9.13333 4.36 8.38667 4.92 7.56C5.48 6.73333 6.25333 5.93333 7.24 5.16C8.22667 4.38667 9.37333 3.74667 10.68 3.24C11.9867 2.73333 13.3733 2.48 14.84 2.48C17.2667 2.48 19.32 3 21 4.04C22.68 5.08 23.9467 6.45333 24.8 8.16C25.68 9.84 26.12 11.68 26.12 13.68C26.12 16.56 25.6667 19.2133 24.76 21.64C23.8533 24.0667 22.6267 26.1867 21.08 28C19.56 29.8133 17.8533 31.2267 15.96 32.24C14.0933 33.2267 12.1867 33.72 10.24 33.72ZM9.64 8C9.74667 8.13333 9.8 8.26667 9.8 8.4C9.8 8.58667 9.73333 8.77333 9.6 8.96C9.49333 9.14667 9.36 9.36 9.2 9.6C8.69333 10.24 8.14667 11.08 7.56 12.12C7 13.16 6.46667 14.3067 5.96 15.56C5.48 16.8133 5.08 18.1067 4.76 19.44C4.44 20.7467 4.28 22 4.28 23.2C4.28 25.2533 4.74667 26.92 5.68 28.2C6.61333 29.4533 8 30.08 9.84 30.08C11.2267 30.08 12.5467 29.7467 13.8 29.08C15.08 28.4133 16.24 27.52 17.28 26.4C18.3467 25.2533 19.2667 23.9867 20.04 22.6C20.8133 21.1867 21.4133 19.7333 21.84 18.24C22.2667 16.7467 22.48 15.32 22.48 13.96C22.48 12.5467 22.2 11.2267 21.64 10C21.08 8.77333 20.2667 7.78666 19.2 7.04C18.1333 6.29333 16.84 5.92 15.32 5.92C14.04 5.92 12.9333 6.13333 12 6.56C11.0933 6.96 10.3067 7.44 9.64 8ZM37.9053 32C37.5053 32 37.1053 31.7067 36.7053 31.12C36.332 30.5333 36.052 29.7067 35.8653 28.64C35.6786 27.52 35.5053 26.24 35.3453 24.8C35.1853 23.36 35.052 21.9467 34.9453 20.56C34.8386 19.1733 34.7586 17.9467 34.7053 16.88C34.652 15.8133 34.6253 15.0933 34.6253 14.72C34.6253 13.3333 34.8386 12.3067 35.2653 11.64C35.7186 10.9467 36.292 10.6 36.9853 10.6C37.4653 10.6 37.812 10.7333 38.0253 11C38.2386 11.24 38.3453 11.8 38.3453 12.68C38.3453 13.2667 38.3586 14.0267 38.3853 14.96C38.412 15.8933 38.452 16.9067 38.5053 18C38.5586 19.3067 38.612 20.6933 38.6653 22.16C38.7186 23.6 38.7586 25.0267 38.7853 26.44C39.4253 25.3733 40.1586 24.1867 40.9853 22.88C41.8386 21.5733 42.7053 20.24 43.5853 18.88C44.4653 17.4933 45.3186 16.1733 46.1453 14.92C46.972 13.6667 47.7053 12.5733 48.3453 11.64C48.9853 10.7067 49.4786 10.0267 49.8253 9.6C50.2786 9.06667 50.692 8.69333 51.0653 8.48C51.4653 8.26666 51.812 8.16 52.1053 8.16C52.5053 8.16 52.8253 8.30667 53.0653 8.6C53.332 8.89333 53.4653 9.30666 53.4653 9.84C53.4653 10.16 53.3986 10.52 53.2653 10.92C53.1586 11.2933 52.9586 11.68 52.6653 12.08C51.9453 13.1733 51.0786 14.4533 50.0653 15.92C49.052 17.3867 47.9986 18.9067 46.9053 20.48C45.812 22.0533 44.7453 23.5867 43.7053 25.08C42.6653 26.5467 41.7586 27.84 40.9853 28.96C39.6253 30.9867 38.5986 32 37.9053 32ZM71.5791 15.12C71.5791 16.8267 70.7657 18.48 69.1391 20.08C67.5124 21.68 65.0324 23.1467 61.6991 24.48C61.5924 25.1467 61.5391 25.7067 61.5391 26.16C61.5391 27.2267 61.6724 28 61.9391 28.48C62.2324 28.96 62.7124 29.2 63.3791 29.2C64.3657 29.2 65.4724 28.8933 66.6991 28.28C67.9257 27.64 69.1924 26.8267 70.4991 25.84C71.8057 24.8267 73.0857 23.76 74.3391 22.64C75.6191 21.52 76.7924 20.4667 77.8591 19.48C78.9257 18.4667 79.8324 17.6533 80.5791 17.04C81.3257 16.4 81.8324 16.08 82.0991 16.08C82.4724 16.08 82.7791 16.2533 83.0191 16.6C83.2591 16.92 83.3791 17.36 83.3791 17.92C83.3791 18.6133 83.3391 19.4133 83.2591 20.32C83.1791 21.2 83.0857 22.1333 82.9791 23.12C83.6724 21.1733 84.5391 19.48 85.5791 18.04C86.6457 16.5733 87.7791 15.36 88.9791 14.4C90.1791 13.44 91.3524 12.72 92.4991 12.24C93.6457 11.76 94.6324 11.52 95.4591 11.52C96.2324 11.52 96.8057 11.6667 97.1791 11.96C97.5524 12.2533 97.7391 12.6 97.7391 13C97.7391 13.3733 97.5657 13.72 97.2191 14.04C96.8991 14.3333 96.1524 14.72 94.9791 15.2C93.6191 15.7333 92.3391 16.36 91.1391 17.08C89.9657 17.8 88.8724 18.7867 87.8591 20.04C86.8457 21.2667 85.9391 22.9067 85.1391 24.96C84.3391 27.0133 83.6591 29.6533 83.0991 32.88C82.9924 33.52 82.8057 33.9733 82.5391 34.24C82.2724 34.5333 81.9524 34.68 81.5791 34.68C81.3124 34.68 81.0457 34.56 80.7791 34.32C80.5124 34.1067 80.2991 33.5867 80.1391 32.76C79.9791 31.9067 79.8991 30.5733 79.8991 28.76C79.8991 27.5333 79.9524 26.2 80.0591 24.76C80.1924 23.32 80.3791 21.8133 80.6191 20.24C79.3924 21.5733 78.0324 22.9733 76.5391 24.44C75.0457 25.88 73.4991 27.2267 71.8991 28.48C70.2991 29.7067 68.7257 30.7067 67.1791 31.48C65.6324 32.2533 64.1924 32.64 62.8591 32.64C61.4457 32.64 60.3124 32.1467 59.4591 31.16C58.6057 30.1733 58.1791 28.7067 58.1791 26.76C58.1791 24.52 58.4724 22.4667 59.0591 20.6C59.6457 18.7333 60.4057 17.12 61.3391 15.76C62.2724 14.3733 63.2724 13.3067 64.3391 12.56C65.4057 11.8133 66.4324 11.44 67.4191 11.44C68.7524 11.44 69.7791 11.7867 70.4991 12.48C71.2191 13.1467 71.5791 14.0267 71.5791 15.12ZM62.3391 21.56C63.1391 21 64.0057 20.3733 64.9391 19.68C65.8991 18.9867 66.7124 18.28 67.3791 17.56C68.0724 16.8133 68.4191 16.1333 68.4191 15.52C68.4191 15.1467 68.3257 14.88 68.1391 14.72C67.9524 14.56 67.6324 14.48 67.1791 14.48C66.4591 14.48 65.7924 14.84 65.1791 15.56C64.5657 16.2533 64.0191 17.1467 63.5391 18.24C63.0591 19.3067 62.6591 20.4133 62.3391 21.56ZM100.965 7.36C99.8717 7.36 99.0983 7.30667 98.645 7.2C98.1917 7.06667 97.9117 6.89333 97.805 6.68C97.725 6.46667 97.685 6.25333 97.685 6.04C97.685 5.74666 97.8317 5.48 98.125 5.24C98.445 4.97333 99.085 4.76 100.045 4.6C101.272 4.33333 102.712 4.06667 104.365 3.8C106.045 3.50666 107.832 3.24 109.725 3C111.618 2.73333 113.512 2.49333 115.405 2.28C117.325 2.06667 119.152 1.90667 120.885 1.8C122.645 1.66667 124.205 1.6 125.565 1.6C127.378 1.6 128.605 1.76 129.245 2.08C129.912 2.4 130.245 2.74667 130.245 3.12C130.245 3.46667 130.058 3.78667 129.685 4.08C129.338 4.37333 128.738 4.52 127.885 4.52C127.538 4.52 126.738 4.6 125.485 4.76C124.232 4.89333 122.698 5.08 120.885 5.32C119.098 5.53333 117.205 5.77333 115.205 6.04C115.072 6.94667 114.872 8.14666 114.605 9.64C114.338 11.1067 114.032 12.72 113.685 14.48C113.365 16.24 113.032 18.0133 112.685 19.8C112.365 21.56 112.058 23.2 111.765 24.72C111.498 26.24 111.272 27.4933 111.085 28.48C110.898 29.4667 110.792 30.0533 110.765 30.24C110.658 31.0667 110.418 31.6933 110.045 32.12C109.698 32.52 109.312 32.72 108.885 32.72C108.378 32.72 107.952 32.5067 107.605 32.08C107.285 31.6267 107.125 30.84 107.125 29.72C107.125 29.3467 107.205 28.6267 107.365 27.56C107.525 26.4667 107.738 25.1733 108.005 23.68C108.272 22.1867 108.565 20.6 108.885 18.92C109.205 17.24 109.525 15.6 109.845 14C110.165 12.3733 110.458 10.9067 110.725 9.6C110.992 8.26666 111.192 7.22666 111.325 6.48C109.218 6.72 107.232 6.93333 105.365 7.12C103.525 7.28 102.058 7.36 100.965 7.36ZM126.131 34.04C125.118 34.04 124.278 33.5733 123.611 32.64C122.971 31.68 122.651 30.44 122.651 28.92C122.651 27.5067 122.998 26.1067 123.691 24.72C124.411 23.3333 125.358 22 126.531 20.72C127.705 19.44 128.985 18.2667 130.371 17.2C131.758 16.1067 133.145 15.16 134.531 14.36C135.945 13.56 137.238 12.9333 138.411 12.48C139.585 12.0267 140.518 11.8 141.211 11.8C141.585 11.8 141.891 11.88 142.131 12.04C142.371 12.1733 142.491 12.4267 142.491 12.8C142.491 13.04 142.398 13.2667 142.211 13.48C142.238 13.48 142.265 13.48 142.291 13.48C142.878 13.48 143.171 13.8267 143.171 14.52C143.171 14.76 143.078 15.2533 142.891 16C142.705 16.72 142.491 17.6267 142.251 18.72C142.011 19.8133 141.798 21.0267 141.611 22.36C141.425 23.6667 141.331 25 141.331 26.36C141.331 27.5067 141.771 28.08 142.651 28.08C143.638 28.08 144.638 27.8533 145.651 27.4C146.665 26.9467 147.651 26.4 148.611 25.76C149.571 25.0933 150.451 24.44 151.251 23.8C152.051 23.1333 152.731 22.5733 153.291 22.12C153.851 21.6667 154.251 21.44 154.491 21.44C154.705 21.44 154.891 21.5067 155.051 21.64C155.211 21.7733 155.291 21.9867 155.291 22.28C155.291 22.5467 155.025 23.0267 154.491 23.72C153.958 24.4133 153.251 25.2 152.371 26.08C151.491 26.96 150.505 27.8133 149.411 28.64C148.318 29.4667 147.198 30.1467 146.051 30.68C144.905 31.2133 143.811 31.48 142.771 31.48C141.971 31.48 141.238 31.24 140.571 30.76C139.931 30.2533 139.411 29.4 139.011 28.2C138.638 27 138.451 25.3467 138.451 23.24V22.24C137.145 24.4 135.771 26.3733 134.331 28.16C132.918 29.9467 131.505 31.3733 130.091 32.44C128.705 33.5067 127.385 34.04 126.131 34.04ZM140.451 14.68C140.318 14.7333 140.131 14.8133 139.891 14.92C138.665 15.48 137.385 16.1733 136.051 17C134.745 17.8267 133.465 18.7467 132.211 19.76C130.985 20.7733 129.878 21.8267 128.891 22.92C127.905 24.0133 127.118 25.12 126.531 26.24C125.945 27.36 125.651 28.4533 125.651 29.52C125.651 29.8667 125.718 30.1333 125.851 30.32C126.011 30.5067 126.278 30.6 126.651 30.6C127.185 30.6 127.878 30.2667 128.731 29.6C129.585 28.9067 130.518 28 131.531 26.88C132.571 25.76 133.611 24.52 134.651 23.16C135.691 21.8 136.678 20.4267 137.611 19.04C138.571 17.6533 139.398 16.3733 140.091 15.2C140.198 15.0133 140.318 14.84 140.451 14.68ZM153.562 31.56C153.162 31.56 152.868 31.4133 152.682 31.12C152.495 30.8267 152.402 30.4533 152.402 30C152.402 29.6267 152.642 29.0933 153.122 28.4C153.628 27.68 154.282 26.84 155.082 25.88C155.908 24.8933 156.815 23.84 157.802 22.72C158.788 21.6 159.788 20.4667 160.802 19.32C159.575 17.24 158.642 15.6 158.002 14.4C157.362 13.1733 157.042 12.2133 157.042 11.52C157.042 11.04 157.202 10.6 157.522 10.2C157.842 9.77333 158.162 9.56 158.482 9.56C158.855 9.56 159.215 9.78667 159.562 10.24C159.935 10.6667 160.388 11.4 160.922 12.44C161.455 13.4533 162.175 14.8533 163.082 16.64C164.548 14.88 165.762 13.44 166.722 12.32C167.708 11.2 168.495 10.3333 169.082 9.72C169.695 9.10667 170.175 8.68 170.522 8.44C170.895 8.17333 171.215 8.04 171.482 8.04C171.802 8.04 172.068 8.17333 172.282 8.44C172.495 8.68 172.602 9.08 172.602 9.64C172.602 10.1733 172.348 10.8267 171.842 11.6C171.362 12.3733 170.722 13.2133 169.922 14.12C169.122 15.0267 168.255 15.96 167.322 16.92C166.415 17.8533 165.548 18.76 164.722 19.64C166.055 21.9333 167.335 23.9333 168.562 25.64C169.788 27.32 170.775 28.7067 171.522 29.8C172.295 30.8933 172.682 31.6933 172.682 32.2C172.682 32.5467 172.602 32.8133 172.442 33C172.282 33.16 171.975 33.24 171.522 33.24C171.202 33.24 170.828 33.1067 170.402 32.84C169.975 32.5733 169.428 32.0533 168.762 31.28C168.122 30.5067 167.282 29.3867 166.242 27.92C165.228 26.4267 163.975 24.48 162.482 22.08C161.548 23.12 160.615 24.2 159.682 25.32C158.775 26.4133 157.908 27.44 157.082 28.4C156.282 29.3333 155.575 30.0933 154.962 30.68C154.348 31.2667 153.882 31.56 153.562 31.56ZM193.068 15.76C193.068 16.6133 192.801 17.4533 192.268 18.28C191.734 19.08 191.028 19.8533 190.148 20.6C189.268 21.32 188.294 22 187.228 22.64C186.161 23.28 185.094 23.84 184.028 24.32C182.961 24.8 181.988 25.1867 181.108 25.48C180.894 26.52 180.788 27.44 180.788 28.24C180.788 28.7467 180.908 29.1067 181.148 29.32C181.388 29.5333 181.761 29.64 182.268 29.64C183.388 29.64 184.574 29.44 185.828 29.04C187.081 28.64 188.361 28.12 189.668 27.48C190.974 26.84 192.228 26.16 193.428 25.44C194.628 24.72 195.721 24.04 196.707 23.4C197.721 22.76 198.561 22.24 199.228 21.84C199.894 21.44 200.334 21.24 200.548 21.24C200.868 21.24 201.108 21.3467 201.268 21.56C201.454 21.7467 201.548 21.9733 201.548 22.24C201.548 22.4533 201.214 22.8667 200.548 23.48C199.908 24.0933 199.041 24.8133 197.948 25.64C196.854 26.44 195.628 27.2667 194.268 28.12C192.908 28.9733 191.494 29.7733 190.028 30.52C188.588 31.2667 187.188 31.8667 185.828 32.32C184.494 32.7733 183.294 33 182.228 33C180.841 33 179.761 32.48 178.988 31.44C178.214 30.4 177.828 28.7867 177.828 26.6C177.828 25.1333 178.014 23.6533 178.388 22.16C178.788 20.6667 179.321 19.24 179.988 17.88C180.681 16.4933 181.441 15.2667 182.268 14.2C183.121 13.1067 184.014 12.2533 184.947 11.64C185.881 11 186.788 10.68 187.668 10.68C189.348 10.68 190.668 11.1467 191.628 12.08C192.588 13.0133 193.068 14.24 193.068 15.76ZM181.948 22.4C182.774 21.8933 183.628 21.36 184.508 20.8C185.388 20.24 186.201 19.6667 186.948 19.08C187.694 18.4933 188.294 17.88 188.748 17.24C189.228 16.5733 189.468 15.8933 189.468 15.2C189.468 14.2133 188.934 13.72 187.868 13.72C187.201 13.72 186.494 14.1467 185.748 15C185.028 15.8267 184.334 16.9067 183.668 18.24C183.001 19.5733 182.428 20.96 181.948 22.4ZM215.032 12.88C215.752 11.1467 216.432 9.36 217.072 7.52C217.738 5.68 218.338 3.8 218.872 1.88C219.032 1.34666 219.272 0.919998 219.592 0.599998C219.938 0.253332 220.338 0.0799994 220.792 0.0799994C221.112 0.0799994 221.378 0.199999 221.592 0.44C221.832 0.679998 221.952 0.999998 221.952 1.4C221.952 1.90667 221.752 2.78667 221.352 4.04C220.978 5.29333 220.498 6.88 219.912 8.8C219.352 10.72 218.778 12.9333 218.192 15.44C217.632 17.92 217.152 20.6667 216.752 23.68C216.378 26.6933 216.192 29.9067 216.192 33.32C216.192 34.0667 216.032 34.68 215.712 35.16C215.392 35.6667 215.005 35.92 214.552 35.92C214.285 35.92 214.032 35.8533 213.792 35.72C213.552 35.5867 213.338 35.2667 213.152 34.76C212.992 34.28 212.858 33.52 212.752 32.48C212.645 31.4133 212.592 29.9733 212.592 28.16C212.592 26.7733 212.672 25.2667 212.832 23.64C211.605 25.8533 210.272 27.7867 208.832 29.44C207.418 31.0667 206.045 32.32 204.712 33.2C203.405 34.08 202.285 34.52 201.352 34.52C200.205 34.52 199.272 34.1333 198.552 33.36C197.858 32.6133 197.512 31.4933 197.512 30C197.512 28.6933 197.818 27.3467 198.432 25.96C199.045 24.5733 199.858 23.2133 200.872 21.88C201.885 20.52 203.005 19.24 204.232 18.04C205.458 16.84 206.685 15.7867 207.912 14.88C209.165 13.9467 210.325 13.2267 211.392 12.72C212.458 12.1867 213.325 11.92 213.992 11.92C214.258 11.92 214.498 12.0133 214.712 12.2C214.925 12.3867 215.032 12.6133 215.032 12.88ZM214.512 14.12C214.325 14.3067 214.098 14.4933 213.832 14.68C213.565 14.8667 213.272 15.0667 212.952 15.28C211.778 16.1067 210.485 17.0667 209.072 18.16C207.685 19.2267 206.352 20.4 205.072 21.68C203.818 22.9333 202.792 24.2533 201.992 25.64C201.192 27.0267 200.792 28.4533 200.792 29.92C200.792 30.56 201.112 30.88 201.752 30.88C202.632 30.88 203.592 30.4667 204.632 29.64C205.698 28.7867 206.792 27.6133 207.912 26.12C209.032 24.6 210.152 22.8267 211.272 20.8C212.392 18.7467 213.472 16.52 214.512 14.12Z" fill="url(#paint0_linear_3_2)"/>
<defs>
<linearGradient id="paint0_linear_3_2" x1="-4" y1="19" x2="242.237" y2="19" gradientUnits="userSpaceOnUse">
<stop stop-color="#737FFD"/>
<stop offset="1" stop-color="#00CBB7"/>
</linearGradient>
</defs>
</svg>
